<svg width="163" height="38" viewBox="0 0 163 38" fill="none" xmlns="http://www.w3.org/2000/svg">
<path d="M6.81229 0.517273C10.3069 0.517273 13.0576 3.26793 13.0576 6.83703C13.0576 10.3308 10.3069 13.0814 6.81229 13.0814C3.31767 13.0814 0.567017 10.3308 0.567017 6.83703C0.567017 3.26793 3.31767 0.517273 6.81229 0.517273Z" fill="#273A92"/>
<path d="M19.0054 28.4996L28.5096 18.9955L19.0054 9.49042L9.50037 18.9955L19.0054 28.4996Z" fill="#EFBD43"/>
<path d="M28.4959 37.9892L38.0001 28.485L28.4959 18.9808L18.9908 28.485L28.4959 37.9892Z" fill="#F0544A"/>
<path d="M28.4959 19.0092L38.0001 9.50416L28.4959 0L18.9908 9.50416L28.4959 19.0092Z" fill="#24A9DA"/>
<path d="M9.50417 38L19.0092 28.4958L9.50417 18.9908L0 28.4958L9.50417 38Z" fill="#9A2479"/>
<path d="M51.5395 4.06873H46.8154V34.524H51.5395V4.06873Z" fill="#231F20"/>
<path d="M102.018 23.31C101.587 24.6271 100.958 25.8162 100.128 26.8747C99.2965 27.935 98.287 28.7859 97.0988 29.4309C95.9106 30.0749 94.5436 30.3965 92.9978 30.3965C91.509 30.3965 90.163 30.089 88.9599 29.4738C87.7576 28.8586 86.7341 28.0349 85.8894 27.0036C85.0446 25.9722 84.3927 24.7857 83.9353 23.4388C83.4761 22.0929 83.2483 20.7057 83.2483 19.273C83.2483 17.899 83.4691 16.546 83.9134 15.214C84.3568 13.883 84.9938 12.7009 85.8254 11.6712C86.6552 10.6398 87.6709 9.80211 88.8749 9.15805C90.0771 8.51398 91.452 8.19238 92.9978 8.19238C94.4577 8.19238 95.7826 8.49996 96.9709 9.11511C98.1591 9.73114 99.1756 10.547 100.019 11.5634C100.864 12.5799 101.515 13.7542 101.974 15.0852C102.433 16.4163 102.661 17.8122 102.661 19.273C102.661 20.647 102.447 21.9938 102.018 23.31ZM103.585 8.70676C102.31 7.24775 100.778 6.06652 98.9889 5.16395C97.1996 4.26225 95.2165 3.81009 93.0398 3.81009C90.9219 3.81009 88.9669 4.23333 87.1775 5.07807C85.3873 5.92281 83.8424 7.0611 82.5393 8.49295C81.2354 9.92479 80.2119 11.5713 79.468 13.4317C78.7231 15.2929 78.3507 17.2409 78.3507 19.273C78.3507 21.2201 78.7021 23.1243 79.4031 24.9846C80.1042 26.8467 81.0996 28.5011 82.3877 29.9461C83.6768 31.3929 85.2155 32.5522 87.0066 33.4241C88.7951 34.2986 90.7782 34.7359 92.9548 34.7359C95.0439 34.7359 96.9849 34.3126 98.7742 33.4679C100.564 32.6232 102.117 31.4919 103.434 30.0749C104.751 28.6571 105.775 27.0193 106.506 25.1572C107.235 23.2969 107.601 21.3498 107.601 19.315C107.601 17.3977 107.249 15.5146 106.548 13.6683C105.847 11.8211 104.858 10.1666 103.585 8.70676Z" fill="#231F20"/>
<path d="M81.1055 3.93942H75.2966L67.1393 15.3346L58.982 3.93942H53.1722L64.2344 19.3936L53.3344 34.6207H59.1441L67.1384 23.4516L75.1337 34.6207H80.9443L70.0442 19.3936L81.1055 3.93942Z" fill="#231F20"/>
<path d="M143.133 21.4757L147.012 9.62575H147.046L147.069 9.709L147.067 9.62575H149.031L149.027 9.709L149.051 9.62575H149.085L152.963 21.4757H143.133ZM115.801 19.661V8.27978H123.961C124.591 8.27978 125.2 8.42963 125.787 8.73107C126.373 9.03076 126.889 9.43998 127.333 9.95524C127.777 10.4705 128.133 11.0725 128.405 11.7586C128.679 12.4456 128.814 13.1765 128.814 13.9493C128.814 14.7231 128.7 15.453 128.471 16.1392C128.242 16.8271 127.926 17.4361 127.527 17.9653C127.124 18.4955 126.646 18.91 126.088 19.2105C125.529 19.5111 124.906 19.661 124.219 19.661H115.801ZM157.233 34.5218H162.344L151.391 4.02893H149.234L149.233 4.03769H146.863L146.863 4.02893H144.705L133.816 34.3475L127.96 22.8287C127.985 22.8182 128.011 22.8112 128.036 22.8007C128.088 22.7814 128.138 22.756 128.19 22.7358C128.549 22.5825 128.897 22.4151 129.239 22.2399C129.565 22.0506 129.886 21.8543 130.189 21.6168C130.934 21.0288 131.564 20.3348 132.078 19.533C132.593 18.7321 132.995 17.8576 133.28 16.9129C133.568 15.9683 133.71 14.9807 133.71 13.9493C133.71 12.7182 133.474 11.508 133.002 10.3198C132.53 9.13241 131.878 8.0721 131.048 7.14149C130.217 6.21175 129.222 5.4599 128.064 4.88681C126.903 4.3146 125.635 4.02893 124.261 4.02893H110.99V34.5218H115.801V23.9136H122.575V23.9118C122.718 23.9118 122.857 23.8934 123 23.889L128.449 34.5218H138.864L141.967 25.0396H154.13L157.233 34.5218Z" fill="#231F20"/>
</svg>
